<svg id="visual" viewBox="0 0 900 600" width="900" height="600" xmlns="http://www.w3.org/2000/svg" xmlns:xlink="http://www.w3.org/1999/xlink" version="1.1"><g stroke-width="1" stroke-linejoin="bevel"><path d="M392 308L338 232L329 333Z" fill="#19435d" stroke="#19435d"></path><path d="M392 308L411 212L338 232Z" fill="#081a28" stroke="#081a28"></path><path d="M223 296L288 365L329 333Z" fill="#081a28" stroke="#081a28"></path><path d="M329 333L400 422L392 308Z" fill="#246688" stroke="#246688"></path><path d="M273 125L238 234L338 232Z" fill="#0c2435" stroke="#0c2435"></path><path d="M338 232L238 234L329 333Z" fill="#1d4e6b" stroke="#1d4e6b"></path><path d="M238 234L223 296L329 333Z" fill="#246688" stroke="#246688"></path><path d="M288 365L400 422L329 333Z" fill="#081a28" stroke="#081a28"></path><path d="M392 308L512 333L411 212Z" fill="#00101c" stroke="#00101c"></path><path d="M500 399L512 333L392 308Z" fill="#0c2435" stroke="#0c2435"></path><path d="M411 212L273 125L338 232Z" fill="#112e42" stroke="#112e42"></path><path d="M512 333L482 164L411 212Z" fill="#1d4e6b" stroke="#1d4e6b"></path><path d="M411 212L427 104L273 125Z" fill="#15384f" stroke="#15384f"></path><path d="M400 422L500 399L392 308Z" fill="#1d4e6b" stroke="#1d4e6b"></path><path d="M482 164L427 104L411 212Z" fill="#205a7a" stroke="#205a7a"></path><path d="M119 330L167 380L223 296Z" fill="#081a28" stroke="#081a28"></path><path d="M223 296L167 380L288 365Z" fill="#0c2435" stroke="#0c2435"></path><path d="M288 365L234 485L400 422Z" fill="#205a7a" stroke="#205a7a"></path><path d="M119 330L223 296L61 234Z" fill="#15384f" stroke="#15384f"></path><path d="M633 137L474 94L482 164Z" fill="#297ea6" stroke="#297ea6"></path><path d="M482 164L474 94L427 104Z" fill="#0c2435" stroke="#0c2435"></path><path d="M215 0L173 71L273 125Z" fill="#246688" stroke="#246688"></path><path d="M167 380L234 485L288 365Z" fill="#1d4e6b" stroke="#1d4e6b"></path><path d="M400 422L501 471L500 399Z" fill="#19435d" stroke="#19435d"></path><path d="M61 234L223 296L238 234Z" fill="#297ea6" stroke="#297ea6"></path><path d="M167 380L130 533L234 485Z" fill="#277297" stroke="#277297"></path><path d="M615 278L572 226L512 333Z" fill="#246688" stroke="#246688"></path><path d="M512 333L572 226L482 164Z" fill="#112e42" stroke="#112e42"></path><path d="M304 539L398 521L400 422Z" fill="#081a28" stroke="#081a28"></path><path d="M398 521L501 471L400 422Z" fill="#15384f" stroke="#15384f"></path><path d="M500 399L580 400L512 333Z" fill="#00101c" stroke="#00101c"></path><path d="M119 330L110 379L167 380Z" fill="#246688" stroke="#246688"></path><path d="M234 485L304 539L400 422Z" fill="#1d4e6b" stroke="#1d4e6b"></path><path d="M501 471L580 400L500 399Z" fill="#0c2435" stroke="#0c2435"></path><path d="M580 400L615 278L512 333Z" fill="#19435d" stroke="#19435d"></path><path d="M490 0L415 0L474 94Z" fill="#277297" stroke="#277297"></path><path d="M287 0L273 125L427 104Z" fill="#19435d" stroke="#19435d"></path><path d="M273 125L173 71L238 234Z" fill="#112e42" stroke="#112e42"></path><path d="M173 71L61 234L238 234Z" fill="#00101c" stroke="#00101c"></path><path d="M119 330L0 307L110 379Z" fill="#205a7a" stroke="#205a7a"></path><path d="M415 0L287 0L427 104Z" fill="#205a7a" stroke="#205a7a"></path><path d="M490 0L474 94L621 0Z" fill="#277297" stroke="#277297"></path><path d="M474 94L415 0L427 104Z" fill="#0c2435" stroke="#0c2435"></path><path d="M287 0L215 0L273 125Z" fill="#297ea6" stroke="#297ea6"></path><path d="M173 71L113 70L61 234Z" fill="#297ea6" stroke="#297ea6"></path><path d="M105 0L113 70L173 71Z" fill="#15384f" stroke="#15384f"></path><path d="M304 539L313 600L398 521Z" fill="#205a7a" stroke="#205a7a"></path><path d="M398 521L461 600L501 471Z" fill="#205a7a" stroke="#205a7a"></path><path d="M175 600L313 600L304 539Z" fill="#277297" stroke="#277297"></path><path d="M175 600L304 539L234 485Z" fill="#246688" stroke="#246688"></path><path d="M633 137L482 164L572 226Z" fill="#205a7a" stroke="#205a7a"></path><path d="M700 211L633 137L572 226Z" fill="#081a28" stroke="#081a28"></path><path d="M313 600L409 600L398 521Z" fill="#15384f" stroke="#15384f"></path><path d="M501 471L624 466L580 400Z" fill="#205a7a" stroke="#205a7a"></path><path d="M580 400L671 283L615 278Z" fill="#081a28" stroke="#081a28"></path><path d="M615 278L700 211L572 226Z" fill="#15384f" stroke="#15384f"></path><path d="M0 505L130 533L110 379Z" fill="#15384f" stroke="#15384f"></path><path d="M110 379L130 533L167 380Z" fill="#15384f" stroke="#15384f"></path><path d="M628 600L624 466L501 471Z" fill="#112e42" stroke="#112e42"></path><path d="M580 400L721 424L671 283Z" fill="#0c2435" stroke="#0c2435"></path><path d="M409 600L461 600L398 521Z" fill="#246688" stroke="#246688"></path><path d="M0 211L0 307L61 234Z" fill="#277297" stroke="#277297"></path><path d="M61 234L0 307L119 330Z" fill="#1d4e6b" stroke="#1d4e6b"></path><path d="M113 70L0 211L61 234Z" fill="#19435d" stroke="#19435d"></path><path d="M130 533L175 600L234 485Z" fill="#0c2435" stroke="#0c2435"></path><path d="M792 236L700 211L671 283Z" fill="#277297" stroke="#277297"></path><path d="M671 283L700 211L615 278Z" fill="#205a7a" stroke="#205a7a"></path><path d="M0 307L0 399L110 379Z" fill="#1d4e6b" stroke="#1d4e6b"></path><path d="M130 533L75 600L175 600Z" fill="#205a7a" stroke="#205a7a"></path><path d="M215 0L105 0L173 71Z" fill="#297ea6" stroke="#297ea6"></path><path d="M113 70L0 74L0 211Z" fill="#277297" stroke="#277297"></path><path d="M692 83L621 0L633 137Z" fill="#0c2435" stroke="#0c2435"></path><path d="M633 137L621 0L474 94Z" fill="#1d4e6b" stroke="#1d4e6b"></path><path d="M700 211L692 83L633 137Z" fill="#277297" stroke="#277297"></path><path d="M702 472L721 424L624 466Z" fill="#297ea6" stroke="#297ea6"></path><path d="M624 466L721 424L580 400Z" fill="#112e42" stroke="#112e42"></path><path d="M700 211L792 236L692 83Z" fill="#0c2435" stroke="#0c2435"></path><path d="M676 600L702 472L624 466Z" fill="#15384f" stroke="#15384f"></path><path d="M105 0L0 74L113 70Z" fill="#112e42" stroke="#112e42"></path><path d="M0 399L0 505L110 379Z" fill="#00101c" stroke="#00101c"></path><path d="M0 505L75 600L130 533Z" fill="#112e42" stroke="#112e42"></path><path d="M461 600L628 600L501 471Z" fill="#297ea6" stroke="#297ea6"></path><path d="M692 83L666 0L621 0Z" fill="#00101c" stroke="#00101c"></path><path d="M105 0L0 0L0 74Z" fill="#15384f" stroke="#15384f"></path><path d="M824 336L792 236L671 283Z" fill="#205a7a" stroke="#205a7a"></path><path d="M692 83L771 0L666 0Z" fill="#19435d" stroke="#19435d"></path><path d="M835 414L824 336L721 424Z" fill="#297ea6" stroke="#297ea6"></path><path d="M721 424L824 336L671 283Z" fill="#297ea6" stroke="#297ea6"></path><path d="M628 600L676 600L624 466Z" fill="#205a7a" stroke="#205a7a"></path><path d="M0 505L0 600L75 600Z" fill="#277297" stroke="#277297"></path><path d="M803 483L721 424L702 472Z" fill="#112e42" stroke="#112e42"></path><path d="M676 600L803 483L702 472Z" fill="#0c2435" stroke="#0c2435"></path><path d="M803 483L835 414L721 424Z" fill="#205a7a" stroke="#205a7a"></path><path d="M838 75L692 83L792 236Z" fill="#112e42" stroke="#112e42"></path><path d="M838 75L771 0L692 83Z" fill="#297ea6" stroke="#297ea6"></path><path d="M900 122L838 75L792 236Z" fill="#246688" stroke="#246688"></path><path d="M900 299L792 236L824 336Z" fill="#1d4e6b" stroke="#1d4e6b"></path><path d="M900 390L824 336L835 414Z" fill="#1d4e6b" stroke="#1d4e6b"></path><path d="M900 390L900 299L824 336Z" fill="#0c2435" stroke="#0c2435"></path><path d="M900 299L900 229L792 236Z" fill="#277297" stroke="#277297"></path><path d="M900 505L900 390L835 414Z" fill="#277297" stroke="#277297"></path><path d="M676 600L815 600L803 483Z" fill="#19435d" stroke="#19435d"></path><path d="M803 483L900 505L835 414Z" fill="#0c2435" stroke="#0c2435"></path><path d="M900 229L900 122L792 236Z" fill="#15384f" stroke="#15384f"></path><path d="M838 75L900 0L771 0Z" fill="#277297" stroke="#277297"></path><path d="M815 600L900 505L803 483Z" fill="#277297" stroke="#277297"></path><path d="M900 122L900 0L838 75Z" fill="#297ea6" stroke="#297ea6"></path><path d="M815 600L900 600L900 505Z" fill="#0c2435" stroke="#0c2435"></path></g></svg>