<svg id="visual" viewBox="0 0 960 540" width="960" height="540" xmlns="http://www.w3.org/2000/svg" xmlns:xlink="http://www.w3.org/1999/xlink" version="1.1"><path d="M0 100L22.8 136.5C45.7 173 91.3 246 137 306.7C182.7 367.3 228.3 415.7 274 432C319.7 448.3 365.3 432.7 411.2 386.7C457 340.7 503 264.3 548.8 233.2C594.7 202 640.3 216 686 249C731.7 282 777.3 334 823 347C868.7 360 914.3 334 937.2 321L960 308L960 0L937.2 0C914.3 0 868.7 0 823 0C777.3 0 731.7 0 686 0C640.3 0 594.7 0 548.8 0C503 0 457 0 411.2 0C365.3 0 319.7 0 274 0C228.3 0 182.7 0 137 0C91.3 0 45.7 0 22.8 0L0 0Z" fill="#0066FF" stroke-linecap="round" stroke-linejoin="miter"></path></svg>