<svg id="visual" viewBox="0 0 960 540" width="960" height="540" xmlns="http://www.w3.org/2000/svg" xmlns:xlink="http://www.w3.org/1999/xlink" version="1.1"><path d="M0 381L22.8 379.5C45.7 378 91.3 375 137 324.2C182.7 273.3 228.3 174.7 274 136.2C319.7 97.7 365.3 119.3 411.2 153C457 186.7 503 232.3 548.8 282.8C594.7 333.3 640.3 388.7 686 417.2C731.7 445.7 777.3 447.3 823 447.3C868.7 447.3 914.3 445.7 937.2 444.8L960 444L960 0L937.2 0C914.3 0 868.7 0 823 0C777.3 0 731.7 0 686 0C640.3 0 594.7 0 548.8 0C503 0 457 0 411.2 0C365.3 0 319.7 0 274 0C228.3 0 182.7 0 137 0C91.3 0 45.7 0 22.8 0L0 0Z" fill="#0066FF" stroke-linecap="round" stroke-linejoin="miter"></path></svg>