<svg id="visual" viewBox="0 0 960 540" width="960" height="540" xmlns="http://www.w3.org/2000/svg" xmlns:xlink="http://www.w3.org/1999/xlink" version="1.1"><path d="M0 144L17.8 138.2C35.7 132.3 71.3 120.7 106.8 102.7C142.3 84.7 177.7 60.3 213.2 71.5C248.7 82.7 284.3 129.3 320 135.3C355.7 141.3 391.3 106.7 426.8 89.7C462.3 72.7 497.7 73.3 533.2 98.8C568.7 124.3 604.3 174.7 640 199C675.7 223.3 711.3 221.7 746.8 203.2C782.3 184.7 817.7 149.3 853.2 129.3C888.7 109.3 924.3 104.7 942.2 102.3L960 100L960 0L942.2 0C924.3 0 888.7 0 853.2 0C817.7 0 782.3 0 746.8 0C711.3 0 675.7 0 640 0C604.3 0 568.7 0 533.2 0C497.7 0 462.3 0 426.8 0C391.3 0 355.7 0 320 0C284.3 0 248.7 0 213.2 0C177.7 0 142.3 0 106.8 0C71.3 0 35.7 0 17.8 0L0 0Z" fill="#0066FF" stroke-linecap="round" stroke-linejoin="miter"></path></svg>